<?xml version="1.0" encoding="utf-8"?>
<!-- Generator: Adobe Illustrator 27.4.0, SVG Export Plug-In . SVG Version: 6.00 Build 0)  -->
<svg version="1.1" id="Layer_1" xmlns="http://www.w3.org/2000/svg" xmlns:xlink="http://www.w3.org/1999/xlink" x="0px" y="0px"
	 viewBox="0 0 1841 966.2" style="enable-background:new 0 0 1841 966.2;" xml:space="preserve">
<style type="text/css">
	.st0{fill:#6FAEC0;}
	.st1{fill:#65A782;}
</style>
<g>
	<g>
		<rect x="1230.8" y="480.3" class="st0" width="52.4" height="22.4"/>
		<path class="st0" d="M675.3,432.8c-14.3,0-23.6,5.9-29.2,16.1v-27c7.8-4.5,17.5-6.8,29.2-6.8c41.4,0,60.5,27.3,60.5,74.9
			c0,29.2-7.6,50.7-23.2,62.6V490C712.5,455.7,703.4,432.8,675.3,432.8z"/>
		<path class="st0" d="M534.8,415.1c-11.5,0-21.3,2.1-29.4,6.2v25.4c6.2-9.6,15.9-13.8,28.8-13.8c22.8,0,35.1,14.1,34.9,49.1h-71.7
			v-55.6c-16.9,12.8-23.9,35.8-23.9,63.5c0,3.3,0.1,6.5,0.3,9.6h23.9l0,0h94.6c0.2-3.2,0.3-8.1,0.3-13.5
			C592.6,438.5,572,415.1,534.8,415.1z"/>
		<path class="st0" d="M1029.2,415.1c-11.5,0-21.3,2.1-29.4,6.2v25.4c6.2-9.6,15.9-13.8,28.8-13.8c22.8,0,35.1,14.1,34.9,49.1h-32
			v17.5h55.2c0.2-3.2,0.3-8.1,0.3-13.5C1087.1,438.5,1066.4,415.1,1029.2,415.1z"/>
		<polygon class="st0" points="913,491.5 935.5,491.5 935.5,355.5 898.6,355.5 898.6,373.2 913,373.2 		"/>
		<path class="st0" d="M833.8,545.4c-2.9,0.7-6.1,1-9.5,1c-28,0-35.6-22.6-35.6-56.7v-72.5h-36.9v17.7h14.5v175.8h22.4v-65.7
			c6.3,9.9,19.7,19,41.1,19c1.3,0,2.7,0,4-0.1L833.8,545.4L833.8,545.4z"/>
		<path class="st0" d="M1384.7,546.9c-16.7,0-29.4-6.5-29.4-27.8c0-28.1,22.1-27.6,41.1-27.6h17.6v-16.4h-21.8
			c-30.6,0-60.1,4.7-60.1,44.4c0,34.5,23.1,44.8,47.8,44.8c15.4,0,26.7-4.2,34.1-10.2v-20.1C1408.6,541.5,1399.7,546.9,1384.7,546.9
			z"/>
		<polygon class="st0" points="1509,499.5 1486.6,499.5 1486.6,562.2 1521.8,562.2 1521.8,544.5 1509,544.5 		"/>
		<path class="st0" d="M397,415.1c-14.8,0-25.5,4.4-33,10.4v21.9c5.5-9.1,14.1-14.5,27.6-14.5c28.1,0,37.2,22.6,37.2,56.7
			c0,25.7-5.2,44.9-19.7,52.7V563c25-4.8,42.8-25.9,42.8-73.3C451.9,434.9,428.2,415.1,397,415.1z"/>
		<rect x="1200.3" y="419.9" class="st1" width="22.4" height="52.4"/>
		<rect x="1200.3" y="480.3" class="st1" width="22.4" height="22.4"/>
		<rect x="1139.9" y="480.3" class="st1" width="52.4" height="22.4"/>
		<path class="st1" d="M614.9,490c0-29.4,7.6-50.7,23.2-62.6V490c0,34.1,9.1,57,37.2,57c14.1,0,23.4-5.8,29.2-16.1v27
			c-7.8,4.5-17.5,6.8-29.2,6.8C633.9,564.8,614.9,537.5,614.9,490z"/>
		<path class="st1" d="M543.7,546.4c-26.4,0-42.9-12.3-45.6-39h-23.5c5.3,42,30.6,57,66.6,57c22.1,0,36.7-5.7,42.9-8.3l-1.5-18.7
			C575.2,540.7,561.4,546.4,543.7,546.4z"/>
		<path class="st1" d="M1038.2,546.4c-28.9,0-46-14.8-46-47h31.4v-17.6h-31.7v-55.6c-16.9,12.8-23.9,35.8-23.9,63.5
			c0,55.4,27,74.6,67.6,74.6c22.1,0,36.7-5.7,42.9-8.3l-1.5-18.7C1069.7,540.7,1055.9,546.4,1038.2,546.4z"/>
		<polygon class="st1" points="935.5,544.5 935.5,499.5 913,499.5 913,562.2 948.3,562.2 948.3,544.5 		"/>
		<path class="st1" d="M829.7,415.1c-14.8,0-25.5,4.4-33,10.4v21.9c5.5-9.1,14.1-14.5,27.6-14.5c28.1,0,37.2,22.6,37.2,56.7
			c0,25.7-5.2,44.9-19.7,52.7V563c25-4.8,42.8-25.9,42.8-73.3C884.6,434.9,860.9,415.1,829.7,415.1z"/>
		<path class="st1" d="M1444.2,544.5v-64.7c0-24.7,0-64.7-58.8-64.7c-20.2,0-37.4,4.7-42.7,6.7l1.3,17.9c6.8-2.1,21.3-6.7,39.7-6.7
			c23.1,0,38.8,7.1,38.2,42.1l0.2,16.4h0v1v0.2l0,0v69.4h35.1v-17.7L1444.2,544.5L1444.2,544.5z"/>
		<polygon class="st1" points="1486.6,491.5 1509,491.5 1509,417.2 1472.1,417.2 1472.1,434.9 1486.6,434.9 		"/>
		<path class="st1" d="M401.1,545.4c-2.9,0.7-6.1,1-9.5,1c-28,0-35.6-22.6-35.6-56.7v-72.5h-36.9v17.7h14.5v175.8H356v-65.7
			c6.3,9.9,19.7,19,41.1,19c1.4,0,2.7,0,4-0.1L401.1,545.4L401.1,545.4z"/>
		<rect x="1200.3" y="510.7" class="st0" width="22.4" height="52.4"/>
	</g>
	<rect x="1485.4" y="361.7" class="st0" width="22.4" height="22.4"/>
</g>
</svg>
